<svg width="70" height="63" viewBox="0 0 70 63" fill="none" xmlns="http://www.w3.org/2000/svg">
<path d="M35 61.4313C53.7305 61.4313 68.9062 47.9899 68.9062 31.4C68.9062 14.8102 53.7305 1.36879 35 1.36879C16.2695 1.36879 1.09375 14.8102 1.09375 31.4C1.09375 47.9899 16.2695 61.4313 35 61.4313ZM19.1406 26.0719H35V17.4864C35 16.1907 36.7773 15.5368 37.8027 16.4571L53.4297 30.3707C54.0723 30.9399 54.0723 31.8481 53.4297 32.4172L37.8027 46.343C36.7637 47.2633 35 46.6094 35 45.3137V36.7282H19.1406C18.2383 36.7282 17.5 36.0742 17.5 35.275V27.525C17.5 26.7258 18.2383 26.0719 19.1406 26.0719Z" fill="black"/>
</svg>
