<svg width="70" height="63" viewBox="0 0 70 63" fill="none" xmlns="http://www.w3.org/2000/svg">
<path d="M35 1.25452C16.2695 1.25452 1.09375 14.6959 1.09375 31.2858C1.09375 47.8756 16.2695 61.317 35 61.317C53.7305 61.317 68.9062 47.8756 68.9062 31.2858C68.9062 14.6959 53.7305 1.25452 35 1.25452ZM50.8594 36.6139H35V45.1994C35 46.4951 33.2227 47.149 32.1973 46.2287L16.5703 32.3151C15.9277 31.7459 15.9277 30.8377 16.5703 30.2686L32.1973 16.3428C33.2363 15.4225 35 16.0764 35 17.3721V25.9576H50.8594C51.7617 25.9576 52.5 26.6115 52.5 27.4108V35.1608C52.5 35.96 51.7617 36.6139 50.8594 36.6139Z" fill="black"/>
</svg>
